HIERARCHY
ROOT Hips
{
	OFFSET 0.00000 0.00000 0.00000
	CHANNELS 6 Xposition Yposition Zposition Zrotation Yrotation Xrotation 
	JOINT LHipJoint
	{
		OFFSET 0 0 0
		CHANNELS 3 Zrotation Yrotation Xrotation
		JOINT LeftUpLeg
		{
			OFFSET 1.65674 -1.80282 0.62477
			CHANNELS 3 Zrotation Yrotation Xrotation
			JOINT LeftLeg
			{
				OFFSET 2.59720 -7.13576 0.00000
				CHANNELS 3 Zrotation Yrotation Xrotation
				JOINT LeftFoot
				{
					OFFSET 2.49236 -6.84770 0.00000
					CHANNELS 3 Zrotation Yrotation Xrotation
					JOINT LeftToeBase
					{
						OFFSET 0.19704 -0.54136 2.14581
						CHANNELS 3 Zrotation Yrotation Xrotation
						End Site
						{
							OFFSET 0.00000 -0.00000 1.11249
						}
					}
				}
			}
		}
	}
	JOINT RHipJoint
	{
		OFFSET 0 0 0
		CHANNELS 3 Zrotation Yrotation Xrotation
		JOINT RightUpLeg
		{
			OFFSET -1.61070 -1.80282 0.62476
			CHANNELS 3 Zrotation Yrotation Xrotation
			JOINT RightLeg
			{
				OFFSET -2.59502 -7.12977 0.00000
				CHANNELS 3 Zrotation Yrotation Xrotation
				JOINT RightFoot
				{
					OFFSET -2.46780 -6.78024 0.00000
					CHANNELS 3 Zrotation Yrotation Xrotation
					JOINT RightToeBase
					{
						OFFSET -0.23024 -0.63258 2.13368
						CHANNELS 3 Zrotation Yrotation Xrotation
						End Site
						{
							OFFSET -0.00000 -0.00000 1.11569
						}
					}
				}
			}
		}
	}
	JOINT LowerBack
	{
		OFFSET 0 0 0
		CHANNELS 3 Zrotation Yrotation Xrotation
		JOINT Spine
		{
			OFFSET 0.01961 2.05450 -0.14112
			CHANNELS 3 Zrotation Yrotation Xrotation
			JOINT Spine1
			{
				OFFSET 0.01021 2.06436 -0.05921
				CHANNELS 3 Zrotation Yrotation Xrotation
				JOINT Neck
				{
					OFFSET 0 0 0
					CHANNELS 3 Zrotation Yrotation Xrotation
					JOINT Neck1
					{
						OFFSET 0.00713 1.56711 0.14968
						CHANNELS 3 Zrotation Yrotation Xrotation
						JOINT Head
						{
							OFFSET 0.03429 1.56041 -0.10006
							CHANNELS 3 Zrotation Yrotation Xrotation
							End Site
							{
								OFFSET 0.01305 1.62560 -0.05265
							}
						}
					}
				}
				JOINT LeftShoulder
				{
					OFFSET 0 0 0
					CHANNELS 3 Zrotation Yrotation Xrotation
					JOINT LeftArm
					{
						OFFSET 3.54205 0.90436 -0.17364
						CHANNELS 3 Zrotation Yrotation Xrotation
						JOINT LeftForeArm
						{
							OFFSET 4.86513 -0.00000 -0.00000
							CHANNELS 3 Zrotation Yrotation Xrotation
							JOINT LeftHand
							{
								OFFSET 3.35554 -0.00000 0.00000
								CHANNELS 3 Zrotation Yrotation Xrotation
								JOINT LeftFingerBase
								{
									OFFSET 0 0 0
									CHANNELS 3 Zrotation Yrotation Xrotation
									JOINT LeftHandIndex1
									{
										OFFSET 0.66117 -0.00000 0.00000
										CHANNELS 3 Zrotation Yrotation Xrotation
										End Site
										{
											OFFSET 0.53306 -0.00000 0.00000
										}
									}
								}
								JOINT LThumb
								{
									OFFSET 0 0 0
									CHANNELS 3 Zrotation Yrotation Xrotation
									End Site
									{
										OFFSET 0.54120 -0.00000 0.54120
									}
								}
							}
						}
					}
				}
				JOINT RightShoulder
				{
					OFFSET 0 0 0
					CHANNELS 3 Zrotation Yrotation Xrotation
					JOINT RightArm
					{
						OFFSET -3.49802 0.75994 -0.32616
						CHANNELS 3 Zrotation Yrotation Xrotation
						JOINT RightForeArm
						{
							OFFSET -5.02649 -0.00000 0.00000
							CHANNELS 3 Zrotation Yrotation Xrotation
							JOINT RightHand
							{
								OFFSET -3.36431 -0.00000 0.00000
								CHANNELS 3 Zrotation Yrotation Xrotation
								JOINT RightFingerBase
								{
									OFFSET 0 0 0
									CHANNELS 3 Zrotation Yrotation Xrotation
									JOINT RightHandIndex1
									{
										OFFSET -0.73041 -0.00000 0.00000
										CHANNELS 3 Zrotation Yrotation Xrotation
										End Site
										{
											OFFSET -0.58887 -0.00000 0.00000
										}
									}
								}
								JOINT RThumb
								{
									OFFSET 0 0 0
									CHANNELS 3 Zrotation Yrotation Xrotation
									End Site
									{
										OFFSET -0.59786 -0.00000 0.59786
									}
								}
							}
						}
					}
				}
			}
		}
	}
}
MOTION
Frames: 10
Frame Time: .0083333
9.8499 17.7210 -0.6208 3.2450 8.4002 -9.0218 0.0000 0.0000 0.0000 -24.3720 -3.4474 5.9642 0.9989 6.3604 17.8338 0.1688 6.4520 -12.6613 0.2222 -3.0342 -8.3739 0.0000 0.0000 0.0000 15.9096 -6.4096 6.0058 -1.2319 -7.0387 19.8300 -0.4078 -15.6418 -25.8642 -0.0365 -1.2340 3.3928 8.7317 5.1418 1.5494 1.7346 6.8266 3.0569 -2.9117 3.6072 3.1240 7.1939 13.4712 -7.4771 3.8953 16.8249 19.0809 1.6157 8.9312 7.3822 0.0000 0.0000 0.0000 -48.4852 -44.1791 -20.8937 40.3845 -48.2960 -18.7258 -0.0000 0.0000 -78.5272 25.6890 27.6011 12.5641 -7.1250 0.0000 -0.0000 -5.4346 60.0182 -1.9951 0.0000 0.0000 0.0000 99.7583 38.6855 111.6356 -133.7129 51.3837 -96.7599 0.0000 -0.0000 -30.4742 -27.3608 24.8275 -12.2590 7.1250 -0.0000 -0.0000 1.3072 -2.4699 1.2500
9.8539 17.7246 -0.6188 2.8924 8.4997 -9.1083 0.0000 0.0000 0.0000 -23.9977 -3.4439 6.0102 1.0006 6.3655 17.8486 0.1685 6.3408 -12.5383 0.2418 -3.1644 -8.7369 0.0000 0.0000 0.0000 16.2860 -6.4096 6.1634 -1.2103 -6.9792 19.6537 -0.4288 -15.6474 -26.0406 -0.0597 -1.5768 4.3375 9.0571 5.2139 1.5860 1.9351 6.9343 2.8425 -2.8941 3.6509 2.9074 6.9900 13.6640 -6.4543 4.3538 17.1225 18.1684 1.6740 9.0950 6.8512 0.0000 0.0000 0.0000 -47.5059 -44.8361 -21.6157 40.2564 -48.2211 -18.6302 -0.0000 0.0000 -79.0700 25.2121 27.5513 12.2858 -7.1250 0.0000 -0.0000 -5.9551 59.8507 -2.1632 0.0000 0.0000 0.0000 99.9046 38.8626 112.2764 -133.4361 51.5120 -96.5434 0.0000 -0.0000 -30.2044 -28.6831 24.9847 -13.0117 7.1250 -0.0000 -0.0000 0.5306 -2.0052 0.5118
9.8577 17.7269 -0.6167 2.4620 8.6308 -9.2567 0.0000 0.0000 0.0000 -23.5701 -3.5679 6.1500 1.0079 6.3881 17.9147 0.1822 6.2254 -12.6517 0.2008 -2.8852 -7.9593 0.0000 0.0000 0.0000 16.7643 -6.5742 6.4242 -1.1799 -6.8940 19.4017 -0.4446 -15.6649 -26.1886 -0.0617 -1.6033 4.4106 9.5922 5.2570 1.7025 2.0372 7.0137 2.6783 -3.0949 3.6890 2.7349 7.3450 13.5897 -5.3342 4.1149 17.1188 17.0222 1.4094 9.0814 6.3463 -0.0000 0.0000 0.0000 -46.1607 -45.7408 -22.6846 40.0447 -48.0964 -18.4725 -0.0000 0.0000 -79.3876 24.7139 27.6713 12.0646 -7.1250 0.0000 -0.0000 -6.5791 59.8550 -2.3916 -0.0000 0.0000 0.0000 100.0858 39.2536 112.8160 -133.4542 51.5037 -96.5576 0.0000 -0.0000 -29.9551 -29.6092 24.9579 -13.4844 7.1250 -0.0000 -0.0000 -0.0319 -1.8188 -0.0309
9.8615 17.7297 -0.6153 2.4375 8.8173 -9.2623 0.0000 0.0000 0.0000 -23.5839 -3.6981 6.1369 1.0245 6.4389 18.0632 0.1963 6.1015 -12.7635 0.2001 -2.8802 -7.9453 0.0000 0.0000 0.0000 16.7860 -6.7388 6.6081 -1.1414 -6.7846 19.0787 -0.4270 -15.7904 -26.1943 -0.0410 -1.3070 3.5939 9.5539 5.3200 1.6206 2.1524 7.0830 2.7228 -2.9415 3.7252 2.8167 7.7199 13.4890 -4.9462 3.6177 17.0526 16.1644 1.1381 9.0181 6.0841 -0.0000 -0.0000 0.0000 -44.7756 -46.9639 -24.1508 39.7921 -47.9463 -18.2848 -0.0000 0.0000 -79.3591 24.5281 28.1086 12.1334 -7.1250 0.0000 -0.0000 -7.0095 60.2620 -2.6170 -0.0000 -0.0000 0.0000 99.9936 39.6190 113.0087 -133.4271 51.5162 -96.5364 0.0000 -0.0000 -29.5303 -30.2576 25.1460 -13.9221 7.1250 -0.0000 -0.0000 -0.3913 -1.4585 -0.3813
9.8606 17.7348 -0.6172 2.4423 9.0744 -9.1370 0.0000 0.0000 0.0000 -23.5706 -3.7730 5.9249 1.0362 6.4743 18.1671 0.2034 5.8771 -12.6587 0.2461 -3.1921 -8.8139 0.0000 0.0000 0.0000 16.7931 -6.8530 6.6103 -1.1080 -6.6879 18.7939 -0.3788 -16.0552 -26.1209 -0.0316 -1.1482 3.1567 9.4757 5.3624 1.4689 2.1779 7.1224 2.6969 -2.8574 3.7434 2.8661 7.8464 13.5371 -5.3959 3.7627 17.0340 16.0716 1.1936 9.0213 6.1281 0.0000 -0.0000 0.0000 -43.2248 -47.9625 -25.5652 39.5447 -47.7978 -18.1012 -0.0000 0.0000 -79.5304 24.5447 28.2597 12.2006 -7.1250 0.0000 -0.0000 -7.0685 60.4219 -2.6661 0.0000 -0.0000 0.0000 100.2405 39.7050 113.1304 -132.8962 51.7585 -96.1201 0.0000 -0.0000 -29.0687 -30.9089 25.6460 -14.5271 7.1250 -0.0000 -0.0000 -0.6969 -0.7514 -0.6877
9.8583 17.7391 -0.6191 2.4213 9.3379 -9.0194 0.0000 0.0000 0.0000 -23.5255 -3.9810 5.7878 1.0390 6.4828 18.1919 0.2287 5.5527 -12.7672 0.1580 -2.5612 -7.0593 0.0000 0.0000 0.0000 16.8401 -6.9491 6.5799 -1.0872 -6.6268 18.6143 -0.3179 -16.3607 -25.9978 -0.0381 -1.2599 3.4643 9.5375 5.4095 1.3501 2.1240 7.1781 2.5986 -2.9370 3.7694 2.8516 7.6393 13.6106 -6.0239 4.3940 16.9944 16.3023 1.4608 9.0396 6.2315 -0.0000 -0.0000 0.0000 -41.6434 -48.8277 -26.7231 39.3615 -47.6870 -17.9656 -0.0000 0.0000 -79.8144 24.6163 28.4515 12.3136 -7.1250 0.0000 -0.0000 -7.0866 60.6370 -2.7093 -0.0000 -0.0000 0.0000 100.6764 39.5754 113.2449 -132.0951 52.1148 -95.4893 0.0000 -0.0000 -28.4938 -31.6305 26.2239 -15.2254 7.1250 -0.0000 -0.0000 -1.0238 0.0662 -1.0251
9.8628 17.7448 -0.6148 2.3180 9.4381 -9.0113 0.0000 0.0000 0.0000 -23.4188 -4.2302 5.8414 1.0382 6.4806 18.1853 0.2658 5.2224 -13.0642 0.0770 -1.7898 -4.9250 0.0000 0.0000 0.0000 16.9331 -7.0359 6.6186 -1.0749 -6.5903 18.5072 -0.2781 -16.5009 -25.8456 -0.0448 -1.3663 3.7572 9.7641 5.5483 1.2065 2.1698 7.3449 2.5779 -2.9872 3.8592 2.9556 7.7416 13.5483 -5.7803 4.1735 16.9592 15.7654 1.3339 9.0014 6.0468 0.0000 -0.0000 0.0000 -40.2427 -49.9443 -27.7232 38.9858 -47.4574 -17.6883 -0.0000 0.0000 -79.7791 24.5061 28.7858 12.3807 -7.1250 0.0000 -0.0000 -7.3919 60.9538 -2.8824 0.0000 -0.0000 0.0000 100.6908 39.6508 113.2567 -131.6101 52.3251 -95.1060 0.0000 -0.0000 -27.6611 -32.4346 26.6873 -15.9288 7.1250 -0.0000 -0.0000 -1.4124 0.7890 -1.4322
9.8712 17.7445 -0.6102 2.3315 9.5342 -9.0922 0.0000 0.0000 0.0000 -23.5072 -4.3296 6.0377 1.0301 6.4559 18.1131 0.2641 5.2396 -13.0529 0.1441 -2.4464 -6.7411 0.0000 0.0000 0.0000 16.8372 -7.2159 6.7461 -1.0656 -6.5627 18.4262 -0.2869 -16.4099 -25.8047 -0.0486 -1.4222 3.9114 9.6195 5.6507 1.0126 2.3959 7.4480 2.6652 -2.6455 3.9120 3.1192 8.1717 13.4894 -4.9406 3.2011 17.0640 14.6334 0.8858 8.9855 5.6732 -0.0000 -0.0000 0.0000 -39.0493 -50.8995 -28.8468 38.5701 -47.1996 -17.3827 -0.0000 0.0000 -79.8467 24.2874 28.7886 12.2605 -7.1250 0.0000 -0.0000 -7.6447 60.9023 -2.9722 -0.0000 -0.0000 0.0000 100.4726 40.0014 113.5274 -131.3175 52.4501 -94.8742 0.0000 -0.0000 -26.8929 -33.5980 26.9995 -16.7835 7.1250 -0.0000 -0.0000 -2.0329 1.4570 -2.0852
9.8767 17.7371 -0.6088 2.6075 9.7328 -9.0883 0.0000 0.0000 0.0000 -23.8890 -4.2924 6.1557 1.0154 6.4111 17.9820 0.2317 5.4977 -12.7651 0.2574 -3.2643 -9.0154 0.0000 0.0000 0.0000 16.4879 -7.2282 6.8334 -1.0647 -6.5599 18.4180 -0.3266 -16.3511 -26.0571 -0.0676 -1.6780 4.6166 9.0010 5.6944 0.7299 2.6605 7.4633 2.8099 -2.0046 3.9114 3.3116 8.0354 13.5216 -4.7863 2.9920 17.1650 14.0443 0.8094 9.0026 5.4688 -0.0000 -0.0000 0.0000 -37.9674 -51.7981 -30.3773 38.1688 -46.9468 -17.0888 -0.0000 0.0000 -79.9853 23.9506 28.5261 11.9766 -7.1250 0.0000 -0.0000 -7.8872 60.5500 -3.0011 -0.0000 -0.0000 0.0000 100.4569 40.3432 114.1725 -130.6714 52.7211 -94.3611 0.0000 -0.0000 -26.0426 -35.0632 27.5161 -17.9655 7.1250 -0.0000 -0.0000 -2.7776 2.4598 -2.8976
9.8777 17.7377 -0.6075 2.9085 9.9607 -8.9737 0.0000 0.0000 0.0000 -24.2535 -4.4472 6.1922 1.0024 6.3710 17.8647 0.2189 5.5937 -12.6437 0.1882 -2.7938 -7.7052 0.0000 0.0000 0.0000 16.1875 -6.9928 6.7682 -1.0782 -6.6001 18.5359 -0.3845 -16.3671 -26.5410 -0.0965 -2.0033 5.5147 8.5593 5.7812 0.5841 2.7399 7.5652 2.8173 -1.6677 3.9510 3.3402 7.7724 13.5709 -5.2541 3.1732 17.1871 14.1876 0.9385 9.0137 5.5513 -0.0000 0.0000 0.0000 -36.8602 -52.8447 -31.7282 37.8020 -46.7124 -16.8213 -0.0000 0.0000 -80.0608 24.0406 27.9354 11.8036 -7.1250 0.0000 -0.0000 -7.4736 59.9654 -2.7386 -0.0000 0.0000 0.0000 100.5186 40.6537 114.6102 -129.9331 53.0225 -93.7724 0.0000 -0.0000 -24.8398 -36.3306 28.2601 -19.1977 7.1250 -0.0000 -0.0000 -3.3443 3.6822 -3.5581
